<svg xmlns="http://www.w3.org/2000/svg" width="1024" height="1024" viewBox="0 0 1024 1024">
<g>
<path d="M 276.40 730.84 C277.02,731.84 508.15,731.12 551.00,729.99 C595.86,728.80 607.61,727.41 637.00,719.82 C669.43,711.44 698.38,697.86 722.40,679.75 C732.95,671.81 759.91,644.80 767.95,634.14 C799.01,592.95 821.05,536.73 829.37,477.50 C835.85,431.36 835.01,358.88 827.48,313.50 C822.09,281.06 812.37,247.15 801.49,222.81 C785.00,185.91 765.65,158.61 738.24,133.61 C716.81,114.06 697.99,102.10 669.74,90.10 C656.52,84.48 639.55,79.74 621.36,76.59 C587.48,70.71 588.84,70.76 444.80,70.28 C341.93,69.93 311.88,69.56 311.09,68.61 C310.53,67.94 308.08,61.11 305.63,53.44 C301.07,39.14 292.56,14.40 289.13,5.50 C287.27,0.64 287.09,0.49 282.81,0.20 L 279.79 0.00 L 1024.00 0.00 L 1024.00 1024.00 L 0.00 1024.00 L 0.00 0.00 L 278.37 0.00 L 267.62 33.20 C261.69,51.52 256.44,67.51 255.94,68.75 C255.08,70.90 254.53,71.00 243.77,71.00 C225.59,71.00 179.58,73.14 178.62,74.03 C176.03,76.46 179.53,80.17 196.16,92.63 C205.60,99.71 214.35,106.18 215.60,107.00 C227.92,115.16 238.03,123.34 237.62,124.83 C235.43,132.72 228.05,157.90 224.96,168.00 C220.12,183.78 218.00,192.11 218.00,195.27 C218.00,198.32 220.27,200.37 222.76,199.58 C223.78,199.25 237.19,189.99 252.56,178.98 C267.93,167.98 281.55,158.70 282.82,158.36 C285.75,157.59 287.23,158.35 299.50,167.02 C305.00,170.91 315.58,178.19 323.00,183.22 C330.42,188.24 338.48,193.84 340.89,195.67 L 345.29 199.00 L 418.39 199.02 C458.60,199.02 492.11,199.42 492.86,199.89 C493.29,200.17 493.63,200.35 493.67,200.59 C493.78,201.21 491.85,202.18 484.28,205.98 L 483.32 206.46 C466.29,215.02 448.15,231.71 435.52,250.44 C431.23,256.80 427.11,262.00 426.36,262.00 C425.33,262.00 425.00,260.08 425.00,254.00 L 425.00 246.00 L 277.28 246.00 L 276.68 252.25 C276.03,259.15 275.75,729.79 276.40,730.84 ZM 450.00 710.63 C379.33,710.85 317.23,711.13 312.00,711.26 C300.99,711.54 298.03,711.24 296.12,709.67 C294.94,708.71 294.84,675.21 295.47,488.02 C295.88,366.73 296.27,267.44 296.35,267.38 C296.43,267.31 320.91,267.03 350.75,266.77 L 405.00 266.28 L 405.00 443.56 C405.00,541.06 405.29,621.58 405.64,622.49 C406.22,624.02 411.47,624.10 473.39,623.53 C544.26,622.87 568.47,621.94 580.89,619.41 C615.06,612.46 639.08,599.76 656.26,579.58 C664.20,570.24 669.46,561.39 676.29,545.86 C694.19,505.17 699.95,463.92 698.71,385.08 C698.14,349.21 697.36,338.44 693.88,319.00 C685.06,269.62 668.83,236.24 642.94,214.19 C623.75,197.85 601.39,188.16 571.09,183.07 C553.17,180.06 528.02,179.20 435.26,178.41 C377.02,177.92 352.75,177.39 352.12,176.61 C351.63,176.00 347.31,163.58 342.52,149.00 L 333.81 122.51 L 337.65 119.15 C339.77,117.30 347.80,111.04 355.50,105.23 C363.20,99.42 370.83,93.57 372.45,92.23 L 375.40 89.79 L 477.45 90.28 C584.15,90.79 590.50,91.03 617.00,95.57 C652.16,101.59 686.93,117.07 713.88,138.70 C731.26,152.66 755.66,180.09 764.66,195.79 C766.15,198.38 769.11,203.43 771.25,207.00 C776.55,215.87 781.87,227.12 787.79,242.00 C802.59,279.16 809.67,315.60 813.14,372.52 C815.14,405.29 812.16,462.39 806.98,490.50 C802.87,512.82 797.25,532.66 788.99,554.00 C787.82,557.03 786.28,561.08 785.56,563.00 C784.10,566.95 772.90,589.21 767.53,598.83 C751.48,627.62 722.11,658.77 696.50,674.17 C680.82,683.61 656.27,694.25 640.50,698.44 C635.00,699.91 628.25,701.73 625.50,702.50 C619.49,704.18 606.43,706.46 590.34,708.63 C580.14,710.01 560.71,710.29 450.00,710.63 ZM 7.66 1004.25 L 8.31 1017.00 L 46.40 1016.94 C96.69,1016.85 105.99,1016.22 113.00,1012.40 C119.92,1008.64 127.19,999.88 132.42,989.00 L 136.50 980.50 L 136.79 915.17 C136.96,876.55 136.68,846.97 136.11,842.82 C134.85,833.72 131.04,826.08 124.51,819.55 C114.56,809.60 117.72,810.10 59.35,809.34 L 8.33 808.68 L 7.67 832.09 C6.81,862.21 6.81,987.59 7.66,1004.25 ZM 718.40 1015.59 C718.86,1016.81 722.99,1016.99 744.73,1016.77 L 770.50 1016.50 L 770.77 992.22 L 771.04 967.93 L 781.77 968.22 L 792.50 968.50 L 793.50 1016.50 L 819.78 1016.77 C841.86,1016.99 846.14,1016.80 846.60,1015.60 C846.90,1014.81 846.77,971.71 846.30,919.83 C845.50,832.37 845.82,823.29 841.44,818.64 C840.54,817.70 839.45,816.93 838.12,815.73 C835.92,813.74 832.18,811.53 829.81,810.83 C823.59,808.99 740.30,808.95 734.24,810.79 C729.28,812.29 724.04,816.59 720.79,821.82 L 718.50 825.50 L 718.17 919.82 C717.99,971.70 718.09,1014.79 718.40,1015.59 ZM 884.00 808.72 L 884.00 1017.03 L 936.50 1016.50 L 936.76 977.61 L 937.02 938.71 L 943.51 939.32 C956.31,940.51 957.38,942.67 958.94,970.50 C960.44,996.99 961.70,1007.53 963.99,1012.71 L 965.89 1017.00 L 991.88 1017.00 C1006.18,1017.00 1018.10,1016.65 1018.36,1016.22 C1018.63,1015.79 1018.24,1012.53 1017.50,1008.97 C1016.14,1002.46 1014.62,981.08 1013.42,951.50 C1013.06,942.70 1012.30,934.61 1011.73,933.53 C1009.80,929.85 1000.53,920.78 994.59,916.73 L 988.67 912.70 L 993.43 910.29 C999.96,906.97 1006.64,900.01 1009.83,893.20 L 1012.50 887.50 L 1012.50 831.34 L 1009.47 826.44 C1005.22,819.57 996.04,812.40 989.62,810.95 C986.30,810.20 966.81,809.60 934.25,809.26 ZM 573.28 531.25 C567.41,534.00 565.37,534.41 556.06,534.72 C546.69,535.04 544.86,534.81 539.84,532.69 C525.07,526.45 514.39,516.95 503.26,500.18 C488.77,478.33 477.87,470.07 462.37,469.21 C449.80,468.52 445.62,470.31 435.27,480.82 C430.25,485.92 426.58,488.93 426.17,488.28 C425.55,487.27 425.34,422.82 425.80,374.78 C425.96,358.67 426.28,354.17 427.25,354.55 C427.94,354.82 430.50,358.52 432.93,362.77 C446.43,386.28 456.07,398.59 483.84,427.74 C523.54,469.39 541.09,486.54 546.38,488.86 C553.83,492.13 556.53,491.73 561.63,486.63 C565.32,482.94 566.00,481.65 566.00,478.30 C566.00,471.14 561.09,465.24 519.63,422.59 C504.71,407.25 489.85,391.72 486.61,388.09 C472.11,371.88 459.85,352.61 454.94,338.33 C449.67,323.00 449.04,306.82 453.09,290.66 C459.85,263.72 484.54,238.76 514.03,229.06 C535.00,222.17 563.49,222.48 585.15,229.86 C616.63,240.58 638.96,260.68 639.37,278.68 C639.49,283.78 639.25,284.37 635.76,287.57 C628.47,294.27 623.86,292.14 604.53,273.15 C596.26,265.03 587.70,257.20 585.50,255.74 C574.80,248.65 554.34,244.25 539.79,245.92 C523.54,247.78 515.04,251.02 503.84,259.63 C474.23,282.39 469.64,319.57 492.18,354.14 C499.70,365.68 506.83,373.79 532.50,400.00 C581.24,449.77 587.08,456.28 592.37,466.73 C598.34,478.54 599.91,497.82 595.77,508.66 C592.72,516.66 582.48,526.95 573.28,531.25 ZM 581.00 586.00 C572.09,588.52 557.59,589.73 546.50,588.89 C522.73,587.09 495.93,573.24 475.00,551.94 C465.99,542.78 460.75,535.04 457.84,526.63 C452.90,512.33 459.02,496.85 467.44,502.37 C468.77,503.24 473.70,509.70 478.39,516.73 C493.12,538.77 506.64,551.66 524.12,560.34 C536.39,566.43 545.95,568.38 559.57,567.56 C579.86,566.35 594.16,559.85 609.14,545.03 C619.32,534.95 624.80,526.14 628.39,514.06 C630.78,506.01 630.60,484.66 628.05,474.70 C623.48,456.82 616.09,447.63 560.44,390.60 C539.02,368.65 519.40,348.08 516.84,344.89 C510.02,336.40 507.76,329.71 507.62,317.50 C507.51,308.63 507.80,306.88 510.13,302.00 C515.72,290.29 526.05,281.98 538.33,279.31 C545.01,277.86 546.53,277.86 554.83,279.26 C570.91,281.97 575.04,284.57 594.00,303.94 C614.20,324.57 615.73,325.50 629.52,325.50 C638.79,325.50 640.03,325.26 646.10,322.27 C652.91,318.92 661.92,310.41 665.20,304.21 C667.92,299.09 670.60,299.89 671.96,306.25 C676.74,328.43 678.95,360.20 678.97,407.00 C678.98,434.52 678.52,442.00 676.84,442.00 C676.35,442.00 673.82,438.58 671.22,434.39 C657.02,411.49 648.39,401.78 609.77,365.28 C580.84,337.93 567.05,325.59 563.13,323.57 C559.65,321.77 550.83,321.49 547.85,323.08 C543.24,325.55 541.54,336.15 544.88,341.50 C548.17,346.77 560.80,359.84 587.71,385.83 C620.78,417.77 628.53,425.98 635.34,436.25 C641.99,446.28 648.25,460.72 650.61,471.50 C653.21,483.39 652.98,504.72 650.13,516.44 C642.21,548.90 614.85,576.44 581.00,586.00 ZM 306.82 1016.27 C306.99,1016.69 318.92,1016.91 333.32,1016.77 L 359.50 1016.50 L 359.76 977.90 L 360.02 939.29 L 383.26 938.73 C412.82,938.01 415.83,937.38 422.56,930.48 C425.96,927.00 428.68,922.89 430.60,918.36 L 433.50 911.50 L 433.80 871.30 C433.82,868.98 433.84,866.78 433.85,864.71 C434.07,837.28 434.12,830.94 431.44,826.11 C430.43,824.30 429.04,822.70 427.12,820.27 C424.40,816.83 421.25,814.29 417.31,812.36 L 411.51 809.52 L 359.00 809.51 L 306.50 809.50 L 306.50 912.50 C306.50,969.15 306.64,1015.84 306.82,1016.27 ZM 462.67 1016.33 C463.66,1017.33 532.04,1017.09 542.73,1016.05 C553.53,1015.01 558.11,1012.56 564.14,1004.58 C570.26,996.48 570.34,995.65 569.78,948.38 L 569.28 905.85 L 563.90 900.40 C555.01,891.40 552.53,890.60 531.50,890.01 L 513.50 889.50 L 513.22 873.77 L 512.95 858.03 L 539.22 857.77 L 565.50 857.50 L 565.77 833.77 L 566.04 810.05 L 563.45 809.40 C562.02,809.04 542.77,808.94 520.68,809.18 L 480.50 809.61 L 474.74 812.26 C467.69,815.49 463.58,819.83 461.26,826.46 C459.69,830.95 459.50,835.92 459.50,872.00 C459.50,901.32 459.84,913.62 460.74,916.56 C463.62,926.01 471.90,934.41 480.97,937.06 C482.91,937.63 491.60,938.37 500.28,938.70 L 516.05 939.30 L 515.78 953.90 L 515.50 968.50 L 488.75 968.77 L 462.00 969.03 L 462.00 992.35 C462.00,1005.17 462.30,1015.97 462.67,1016.33 ZM 204.00 1016.07 C208.12,1016.42 225.23,1016.66 242.00,1016.61 L 272.50 1016.50 L 273.04 969.00 L 250.77 968.98 C238.52,968.98 228.00,968.64 227.40,968.23 C224.76,966.47 224.00,962.62 224.00,951.08 L 224.00 939.04 L 248.25 938.77 L 272.50 938.50 L 272.77 913.75 L 273.03 889.00 L 224.00 889.00 L 224.00 858.04 L 248.25 857.77 L 272.50 857.50 L 273.04 808.80 L 192.50 809.52 L 187.18 812.46 C181.21,815.75 177.02,820.51 173.76,827.67 C171.68,832.27 171.54,834.30 170.89,870.50 C170.11,914.21 170.69,970.60 172.05,982.97 C174.17,1002.30 185.98,1014.53 204.00,1016.07 ZM 614.00 858.06 L 614.00 1017.03 L 640.75 1016.77 L 667.50 1016.50 L 667.76 937.28 L 668.01 858.06 L 681.26 857.78 L 694.50 857.50 L 694.77 834.07 C694.98,815.99 694.75,810.46 693.77,809.84 C693.07,809.39 668.53,809.02 639.23,809.02 L 585.96 809.00 L 586.23 833.25 L 586.50 857.50 L 600.25 857.78 ZM 246.50 170.54 C242.10,173.93 237.26,177.49 235.75,178.46 C233.04,180.21 233.00,180.20 233.00,177.94 C233.00,176.68 235.25,168.78 238.00,160.39 C245.20,138.45 250.03,121.24 249.43,119.67 C249.14,118.92 239.05,111.00 227.00,102.07 C214.96,93.14 204.57,85.19 203.93,84.41 C202.95,83.23 203.55,82.98 207.63,82.90 C255.11,81.90 260.13,81.57 261.97,79.28 C262.96,78.06 267.03,67.26 271.01,55.28 C280.66,26.26 281.98,22.83 283.34,23.27 C283.98,23.48 288.55,35.63 293.50,50.28 C298.45,64.92 303.05,77.45 303.71,78.11 C304.51,78.91 312.20,79.63 326.71,80.26 C338.69,80.78 348.86,81.54 349.30,81.95 C350.33,82.92 342.08,89.97 324.85,102.83 C317.35,108.43 310.97,113.64 310.68,114.40 C310.38,115.16 314.16,127.58 319.07,141.99 C328.06,168.37 328.99,172.00 326.81,172.00 C325.69,172.00 320.80,168.80 295.72,151.68 C285.53,144.72 284.28,144.26 280.68,146.15 C277.74,147.69 256.42,162.91 246.50,170.54 ZM 76.69 961.05 C73.06,963.26 64.12,963.72 62.20,961.80 C61.30,960.90 61.00,947.72 61.00,908.66 L 61.00 856.72 L 68.67 857.42 C77.94,858.26 79.53,859.02 80.87,863.24 C81.50,865.23 82.00,883.70 82.16,910.50 L 82.17 913.04 C82.38,950.03 82.42,956.29 79.31,959.24 C78.61,959.91 77.74,960.40 76.69,961.05 ZM 485.75 602.46 C482.46,603.49 429.38,603.95 427.75,602.96 C426.14,601.99 426.00,599.38 426.00,571.45 C426.00,546.50 426.24,541.00 427.35,541.00 C428.10,541.00 431.52,545.32 434.96,550.59 C444.75,565.63 465.11,585.81 481.25,596.48 C487.01,600.29 488.09,601.72 485.75,602.46 ZM 792.77 901.64 L 792.50 924.50 L 782.23 924.79 C773.94,925.02 771.86,924.79 771.40,923.60 C771.09,922.80 771.01,909.17 771.23,893.32 C771.72,857.35 772.12,856.00 782.26,856.00 C791.78,856.00 793.23,862.30 792.77,901.64 ZM 956.95 888.39 C954.38,891.26 953.64,891.50 946.34,891.83 C942.03,892.02 938.16,891.84 937.75,891.42 C937.34,891.01 937.00,883.04 937.00,873.73 L 937.00 856.79 L 945.25 857.51 C954.59,858.33 958.76,860.02 959.43,863.27 C961.82,874.95 960.93,883.92 956.95,888.39 ZM 374.00 890.69 C370.44,891.91 363.52,892.26 361.25,891.34 C360.32,890.96 360.00,886.49 360.00,873.79 L 360.00 856.74 L 367.22 857.45 C371.19,857.84 375.28,858.61 376.30,859.16 C379.33,860.78 381.00,866.32 381.00,874.72 C381.00,884.49 379.03,888.98 374.00,890.69 Z" fill="rgb(0,0,0)"/>
<path d="M 7.66 1004.25 C6.81,987.59 6.81,862.21 7.67,832.09 L 8.33 808.68 L 59.35 809.34 C117.72,810.10 114.56,809.60 124.51,819.55 C131.04,826.08 134.85,833.72 136.11,842.82 C136.68,846.97 136.96,876.55 136.79,915.17 L 136.50 980.50 L 132.42 989.00 C127.19,999.88 119.92,1008.64 113.00,1012.40 C105.99,1016.22 96.69,1016.85 46.40,1016.94 L 8.31 1017.00 L 7.66 1004.25 ZM 76.69 961.05 C82.53,957.49 82.43,958.43 82.16,910.50 C82.00,883.70 81.50,865.23 80.87,863.24 C79.53,859.02 77.94,858.26 68.67,857.42 L 61.00 856.72 L 61.00 908.66 C61.00,947.72 61.30,960.90 62.20,961.80 C64.12,963.72 73.06,963.26 76.69,961.05 ZM 204.00 1016.07 C185.98,1014.53 174.17,1002.30 172.05,982.97 C170.69,970.60 170.11,914.21 170.89,870.50 C171.54,834.30 171.68,832.27 173.76,827.67 C177.02,820.51 181.21,815.75 187.18,812.46 L 192.50 809.52 L 232.77 809.16 L 273.04 808.80 L 272.77 833.15 L 272.50 857.50 L 248.25 857.77 L 224.00 858.04 L 224.00 873.52 L 224.00 889.00 L 248.52 889.00 L 273.03 889.00 L 272.77 913.75 L 272.50 938.50 L 248.25 938.77 L 224.00 939.04 L 224.00 951.08 C224.00,962.62 224.76,966.47 227.40,968.23 C228.00,968.64 238.52,968.98 250.77,968.98 L 273.04 969.00 L 272.77 992.75 L 272.50 1016.50 L 242.00 1016.61 C225.23,1016.66 208.12,1016.42 204.00,1016.07 ZM 306.82 1016.27 C306.64,1015.84 306.50,969.15 306.50,912.50 L 306.50 809.50 L 359.00 809.51 L 411.51 809.52 L 417.31 812.36 C421.25,814.29 424.40,816.83 427.12,820.27 C434.52,829.64 434.14,826.68 433.80,871.30 L 433.50 911.50 L 430.60 918.36 C428.68,922.89 425.96,927.00 422.56,930.48 C415.83,937.38 412.82,938.01 383.26,938.73 L 360.02 939.29 L 359.76 977.90 L 359.50 1016.50 L 333.32 1016.77 C318.92,1016.91 306.99,1016.69 306.82,1016.27 ZM 374.00 890.69 C379.03,888.98 381.00,884.49 381.00,874.72 C381.00,866.32 379.33,860.78 376.30,859.16 C375.28,858.61 371.19,857.84 367.22,857.45 L 360.00 856.74 L 360.00 873.79 C360.00,886.49 360.32,890.96 361.25,891.34 C363.52,892.26 370.44,891.91 374.00,890.69 ZM 462.67 1016.33 C462.30,1015.97 462.00,1005.17 462.00,992.35 L 462.00 969.03 L 488.75 968.77 L 515.50 968.50 L 515.78 953.90 L 516.05 939.30 L 500.28 938.70 C491.60,938.37 482.91,937.63 480.97,937.06 C471.90,934.41 463.62,926.01 460.74,916.56 C459.84,913.62 459.50,901.32 459.50,872.00 C459.50,835.92 459.69,830.95 461.26,826.46 C463.58,819.83 467.69,815.49 474.74,812.26 L 480.50 809.61 L 520.68 809.18 C542.77,808.94 562.02,809.04 563.45,809.40 L 566.04 810.05 L 565.77 833.77 L 565.50 857.50 L 539.22 857.77 L 512.95 858.03 L 513.22 873.77 L 513.50 889.50 L 531.50 890.01 C552.53,890.60 555.01,891.40 563.90,900.40 L 569.28 905.85 L 569.78 948.38 C570.34,995.65 570.26,996.48 564.14,1004.58 C558.11,1012.56 553.53,1015.01 542.73,1016.05 C532.04,1017.09 463.66,1017.33 462.67,1016.33 ZM 614.00 937.54 L 614.00 858.06 L 600.25 857.78 L 586.50 857.50 L 586.23 833.25 L 585.96 809.00 L 639.23 809.02 C668.53,809.02 693.07,809.39 693.77,809.84 C694.75,810.46 694.98,815.99 694.77,834.07 L 694.50 857.50 L 681.26 857.78 L 668.01 858.06 L 667.76 937.28 L 667.50 1016.50 L 640.75 1016.77 L 614.00 1017.03 L 614.00 937.54 ZM 718.40 1015.59 C718.09,1014.79 717.99,971.70 718.17,919.82 L 718.50 825.50 L 720.79 821.82 C724.04,816.59 729.28,812.29 734.24,810.79 C740.30,808.95 823.59,808.99 829.81,810.83 C832.18,811.53 835.92,813.74 838.12,815.73 C845.99,822.84 845.34,814.55 846.30,919.83 C846.77,971.71 846.90,1014.81 846.60,1015.60 C846.14,1016.80 841.86,1016.99 819.78,1016.77 L 793.50 1016.50 L 793.00 992.50 L 792.50 968.50 L 781.77 968.22 L 771.04 967.93 L 770.77 992.22 L 770.50 1016.50 L 744.73 1016.77 C722.99,1016.99 718.86,1016.81 718.40,1015.59 ZM 792.77 901.64 C793.23,862.30 791.78,856.00 782.26,856.00 C772.12,856.00 771.72,857.35 771.23,893.32 C771.01,909.17 771.09,922.80 771.40,923.60 C771.86,924.79 773.94,925.02 782.23,924.79 L 792.50 924.50 L 792.77 901.64 ZM 884.00 912.88 L 884.00 808.72 L 934.25 809.26 C966.81,809.60 986.30,810.20 989.62,810.95 C996.04,812.40 1005.22,819.57 1009.47,826.44 L 1012.50 831.34 L 1012.50 859.42 L 1012.50 887.50 L 1009.83 893.20 C1006.64,900.01 999.96,906.97 993.43,910.29 L 988.67 912.70 L 994.59 916.73 C1000.53,920.78 1009.80,929.85 1011.73,933.53 C1012.30,934.61 1013.06,942.70 1013.42,951.50 C1014.62,981.08 1016.14,1002.46 1017.50,1008.97 C1018.24,1012.53 1018.63,1015.79 1018.36,1016.22 C1018.10,1016.65 1006.18,1017.00 991.88,1017.00 L 965.89 1017.00 L 963.99 1012.71 C961.70,1007.53 960.44,996.99 958.94,970.50 C957.38,942.67 956.31,940.51 943.51,939.32 L 937.02 938.71 L 936.76 977.61 L 936.50 1016.50 L 910.25 1016.77 L 884.00 1017.03 L 884.00 912.88 ZM 956.95 888.39 C960.93,883.92 961.82,874.95 959.43,863.27 C958.76,860.02 954.59,858.33 945.25,857.51 L 937.00 856.79 L 937.00 873.73 C937.00,883.04 937.34,891.01 937.75,891.42 C938.16,891.84 942.03,892.02 946.34,891.83 C953.64,891.50 954.38,891.26 956.95,888.39 ZM 276.40 730.84 C275.75,729.79 276.03,259.15 276.68,252.25 L 277.28 246.00 L 351.14 246.00 L 425.00 246.00 L 425.00 254.00 C425.00,260.08 425.33,262.00 426.36,262.00 C427.11,262.00 431.23,256.80 435.52,250.44 C448.15,231.71 466.29,215.02 483.32,206.46 C494.76,200.71 494.47,200.91 492.86,199.89 C492.11,199.42 458.60,199.02 418.39,199.02 L 345.29 199.00 L 340.89 195.67 C338.48,193.84 330.42,188.24 323.00,183.22 C315.58,178.19 305.00,170.91 299.50,167.02 C287.23,158.35 285.75,157.59 282.82,158.36 C281.55,158.70 267.93,167.98 252.56,178.98 C237.19,189.99 223.78,199.25 222.76,199.58 C220.27,200.37 218.00,198.32 218.00,195.27 C218.00,192.11 220.12,183.78 224.96,168.00 C228.05,157.90 235.43,132.72 237.62,124.83 C238.03,123.34 227.92,115.16 215.60,107.00 C214.35,106.18 205.60,99.71 196.16,92.63 C179.53,80.17 176.03,76.46 178.62,74.03 C179.58,73.14 225.59,71.00 243.77,71.00 C254.53,71.00 255.08,70.90 255.94,68.75 C256.44,67.51 261.69,51.52 267.62,33.20 L 278.40 -0.09 L 282.81 0.20 C287.09,0.49 287.27,0.64 289.13,5.50 C292.56,14.40 301.07,39.14 305.63,53.44 C308.08,61.11 310.53,67.94 311.09,68.61 C311.88,69.56 341.93,69.93 444.80,70.28 C588.84,70.76 587.48,70.71 621.36,76.59 C639.55,79.74 656.52,84.48 669.74,90.10 C697.99,102.10 716.81,114.06 738.24,133.61 C765.65,158.61 785.00,185.91 801.49,222.81 C812.37,247.15 822.09,281.06 827.48,313.50 C835.01,358.88 835.85,431.36 829.37,477.50 C821.05,536.73 799.01,592.95 767.95,634.14 C759.91,644.80 732.95,671.81 722.40,679.75 C698.38,697.86 669.43,711.44 637.00,719.82 C607.61,727.41 595.86,728.80 551.00,729.99 C508.15,731.12 277.02,731.84 276.40,730.84 ZM 450.00 710.63 C560.71,710.29 580.14,710.01 590.34,708.63 C606.43,706.46 619.49,704.18 625.50,702.50 C628.25,701.73 635.00,699.91 640.50,698.44 C656.27,694.25 680.82,683.61 696.50,674.17 C722.11,658.77 751.48,627.62 767.53,598.83 C772.90,589.21 784.10,566.95 785.56,563.00 C786.28,561.08 787.82,557.03 788.99,554.00 C797.25,532.66 802.87,512.82 806.98,490.50 C812.16,462.39 815.14,405.29 813.14,372.52 C809.67,315.60 802.59,279.16 787.79,242.00 C781.87,227.12 776.55,215.87 771.25,207.00 C769.11,203.43 766.15,198.38 764.66,195.79 C755.66,180.09 731.26,152.66 713.88,138.70 C686.93,117.07 652.16,101.59 617.00,95.57 C590.50,91.03 584.15,90.79 477.45,90.28 L 375.40 89.79 L 372.45 92.23 C370.83,93.57 363.20,99.42 355.50,105.23 C347.80,111.04 339.77,117.30 337.65,119.15 L 333.81 122.51 L 342.52 149.00 C347.31,163.58 351.63,176.00 352.12,176.61 C352.75,177.39 377.02,177.92 435.26,178.41 C528.02,179.20 553.17,180.06 571.09,183.07 C601.39,188.16 623.75,197.85 642.94,214.19 C668.83,236.24 685.06,269.62 693.88,319.00 C697.36,338.44 698.14,349.21 698.71,385.08 C699.95,463.92 694.19,505.17 676.29,545.86 C669.46,561.39 664.20,570.24 656.26,579.58 C639.08,599.76 615.06,612.46 580.89,619.41 C568.47,621.94 544.26,622.87 473.39,623.53 C411.47,624.10 406.22,624.02 405.64,622.49 C405.29,621.58 405.00,541.06 405.00,443.56 L 405.00 266.28 L 350.75 266.77 C320.91,267.03 296.43,267.31 296.35,267.38 C296.27,267.44 295.88,366.73 295.47,488.02 C294.84,675.21 294.94,708.71 296.12,709.67 C298.03,711.24 300.99,711.54 312.00,711.26 C317.23,711.13 379.33,710.85 450.00,710.63 ZM 485.75 602.46 C488.09,601.72 487.01,600.29 481.25,596.48 C465.11,585.81 444.75,565.63 434.96,550.59 C431.52,545.32 428.10,541.00 427.35,541.00 C426.24,541.00 426.00,546.50 426.00,571.45 C426.00,599.38 426.14,601.99 427.75,602.96 C429.38,603.95 482.46,603.49 485.75,602.46 ZM 581.00 586.00 C614.85,576.44 642.21,548.90 650.13,516.44 C652.98,504.72 653.21,483.39 650.61,471.50 C648.25,460.72 641.99,446.28 635.34,436.25 C628.53,425.98 620.78,417.77 587.71,385.83 C560.80,359.84 548.17,346.77 544.88,341.50 C541.54,336.15 543.24,325.55 547.85,323.08 C550.83,321.49 559.65,321.77 563.13,323.57 C567.05,325.59 580.84,337.93 609.77,365.28 C648.39,401.78 657.02,411.49 671.22,434.39 C673.82,438.58 676.35,442.00 676.84,442.00 C678.52,442.00 678.98,434.52 678.97,407.00 C678.95,360.20 676.74,328.43 671.96,306.25 C670.60,299.89 667.92,299.09 665.20,304.21 C661.92,310.41 652.91,318.92 646.10,322.27 C640.03,325.26 638.79,325.50 629.52,325.50 C615.73,325.50 614.20,324.57 594.00,303.94 C575.04,284.57 570.91,281.97 554.83,279.26 C546.53,277.86 545.01,277.86 538.33,279.31 C526.05,281.98 515.72,290.29 510.13,302.00 C507.80,306.88 507.51,308.63 507.62,317.50 C507.76,329.71 510.02,336.40 516.84,344.89 C519.40,348.08 539.02,368.65 560.44,390.60 C616.09,447.63 623.48,456.82 628.05,474.70 C630.60,484.66 630.78,506.01 628.39,514.06 C624.80,526.14 619.32,534.95 609.14,545.03 C594.16,559.85 579.86,566.35 559.57,567.56 C545.95,568.38 536.39,566.43 524.12,560.34 C506.64,551.66 493.12,538.77 478.39,516.73 C473.70,509.70 468.77,503.24 467.44,502.37 C459.02,496.85 452.90,512.33 457.84,526.63 C460.75,535.04 465.99,542.78 475.00,551.94 C495.93,573.24 522.73,587.09 546.50,588.89 C557.59,589.73 572.09,588.52 581.00,586.00 ZM 573.28 531.25 C582.48,526.95 592.72,516.66 595.77,508.66 C599.91,497.82 598.34,478.54 592.37,466.73 C587.08,456.28 581.24,449.77 532.50,400.00 C506.83,373.79 499.70,365.68 492.18,354.14 C469.64,319.57 474.23,282.39 503.84,259.63 C515.04,251.02 523.54,247.78 539.79,245.92 C554.34,244.25 574.80,248.65 585.50,255.74 C587.70,257.20 596.26,265.03 604.53,273.15 C623.86,292.14 628.47,294.27 635.76,287.57 C639.25,284.37 639.49,283.78 639.37,278.68 C638.96,260.68 616.63,240.58 585.15,229.86 C563.49,222.48 535.00,222.17 514.03,229.06 C484.54,238.76 459.85,263.72 453.09,290.66 C449.04,306.82 449.67,323.00 454.94,338.33 C459.85,352.61 472.11,371.88 486.61,388.09 C489.85,391.72 504.71,407.25 519.63,422.59 C561.09,465.24 566.00,471.14 566.00,478.30 C566.00,481.65 565.32,482.94 561.63,486.63 C556.53,491.73 553.83,492.13 546.38,488.86 C541.09,486.54 523.54,469.39 483.84,427.74 C456.07,398.59 446.43,386.28 432.93,362.77 C430.50,358.52 427.94,354.82 427.25,354.55 C426.28,354.17 425.96,358.67 425.80,374.78 C425.34,422.82 425.55,487.27 426.17,488.28 C426.58,488.93 430.25,485.92 435.27,480.82 C445.62,470.31 449.80,468.52 462.37,469.21 C477.87,470.07 488.77,478.33 503.26,500.18 C514.39,516.95 525.07,526.45 539.84,532.69 C544.86,534.81 546.69,535.04 556.06,534.72 C565.37,534.41 567.41,534.00 573.28,531.25 ZM 246.50 170.54 C256.42,162.91 277.74,147.69 280.68,146.15 C284.28,144.26 285.53,144.72 295.72,151.68 C320.80,168.80 325.69,172.00 326.81,172.00 C328.99,172.00 328.06,168.37 319.07,141.99 C314.16,127.58 310.38,115.16 310.68,114.40 C310.97,113.64 317.35,108.43 324.85,102.83 C342.08,89.97 350.33,82.92 349.30,81.95 C348.86,81.54 338.69,80.78 326.71,80.26 C312.20,79.63 304.51,78.91 303.71,78.11 C303.05,77.45 298.45,64.92 293.50,50.28 C288.55,35.63 283.98,23.48 283.34,23.27 C281.98,22.83 280.66,26.26 271.01,55.28 C267.03,67.26 262.96,78.06 261.97,79.28 C260.13,81.57 255.11,81.90 207.63,82.90 C203.55,82.98 202.95,83.23 203.93,84.41 C204.57,85.19 214.96,93.14 227.00,102.07 C239.05,111.00 249.14,118.92 249.43,119.67 C250.03,121.24 245.20,138.45 238.00,160.39 C235.25,168.78 233.00,176.68 233.00,177.94 C233.00,180.20 233.04,180.21 235.75,178.46 C237.26,177.49 242.10,173.93 246.50,170.54 Z" fill="rgb(244,244,244)"/>
</g>
</svg>